<svg xmlns="http://www.w3.org/2000/svg" viewBox="0 0 10 17"><path d="M5.193,0C0.538,0,0,2.673,0,4.684a0.978,0.978,0,0,0,1.955,0c0-1.648.225-2.729,3.238-2.729,2.852,0,2.852,1.45,2.852,2.729a1.951,1.951,0,0,1-1.29,1.675l-0.216.083C4.8,7.108,3.809,7.531,3.809,8.472v3.5a0.978,0.978,0,1,0,1.955,0V8.887c0.4-.209,1.152-0.5,1.474-0.62l0.224-.085A3.831,3.831,0,0,0,10,4.684C10,3.526,10,0,5.193,0Z"></path><path d="M5.366,14.943H3.982a1.029,1.029,0,0,0,0,2.057H5.366A1.029,1.029,0,1,0,5.366,14.943Z"></path></svg>
